<svg id="Layer_1" data-name="Layer 1" xmlns="http://www.w3.org/2000/svg" viewBox="0 0 960 57.421">
  <defs>
    <style>
      .cls-1 {
        fill: #4a4948;
      }

      .cls-2 {
        fill: #4a4a49;
      }

      .cls-3, .cls-4 {
        fill: none;
      }

      .cls-3, .cls-5, .cls-7 {
        stroke: #02d267;
      }

      .cls-3, .cls-4, .cls-5, .cls-6, .cls-7 {
        stroke-miterlimit: 10;
      }

      .cls-4, .cls-6 {
        stroke: #c6c6c6;
      }

      .cls-5, .cls-7, .cls-8 {
        fill: #02d267;
      }

      .cls-6 {
        fill: #c6c6c6;
      }

      .cls-6, .cls-7 {
        stroke-width: 3px;
      }
    </style>
  </defs>
  <title>project cirrus</title>
  <g>
    <rect class="cls-1" x="0.5" y="0.5" width="959" height="56.421"/>
    <path class="cls-2" d="M959,503.579V559H1V503.579H959m1-1H0V560H960V502.579h0Z" transform="translate(0 -502.579)"/>
  </g>
  <circle class="cls-3" cx="41.033" cy="28.71" r="18.586"/>
  <path class="cls-4" d="M111.5,525.5" transform="translate(0 -502.579)"/>
  <path class="cls-5" d="M41.388,523.511l7.073,7.073,0.706,0.706-0.647.647L38.167,542.289v-22Z" transform="translate(0 -502.579)"/>
  <line class="cls-6" x1="98.333" y1="28.71" x2="751" y2="28.71"/>
  <circle class="cls-7" cx="99.417" cy="28.71" r="2.417"/>
  <g>
    <path class="cls-8" d="M763.513,531.452c0,2.65-.983,4.113-2.71,4.113-1.523,0-2.555-1.427-2.579-4.006,0-2.614,1.128-4.054,2.711-4.054C762.577,527.506,763.513,528.969,763.513,531.452Zm-4.233.119c0,2.027.624,3.179,1.583,3.179,1.079,0,1.595-1.26,1.595-3.25,0-1.919-.491-3.179-1.583-3.179C759.951,528.321,759.279,529.449,759.279,531.571Z" transform="translate(0 -502.579)"/>
    <path class="cls-8" d="M764.572,534.81a0.709,0.709,0,0,1,.72-0.755A0.757,0.757,0,1,1,764.572,534.81Z" transform="translate(0 -502.579)"/>
    <path class="cls-8" d="M772.152,531.452c0,2.65-.983,4.113-2.71,4.113-1.523,0-2.555-1.427-2.579-4.006,0-2.614,1.128-4.054,2.711-4.054C771.217,527.506,772.152,528.969,772.152,531.452Zm-4.233.119c0,2.027.623,3.179,1.583,3.179,1.079,0,1.595-1.26,1.595-3.25,0-1.919-.491-3.179-1.583-3.179C768.591,528.321,767.919,529.449,767.919,531.571Z" transform="translate(0 -502.579)"/>
    <path class="cls-8" d="M778.309,531.452c0,2.65-.983,4.113-2.71,4.113-1.523,0-2.555-1.427-2.579-4.006,0-2.614,1.128-4.054,2.711-4.054C777.373,527.506,778.309,528.969,778.309,531.452Zm-4.233.119c0,2.027.623,3.179,1.583,3.179,1.079,0,1.595-1.26,1.595-3.25,0-1.919-.491-3.179-1.583-3.179C774.747,528.321,774.075,529.449,774.075,531.571Z" transform="translate(0 -502.579)"/>
  </g>
  <g>
    <path class="cls-5" d="M807.252,525.789l1.286,1.286,0.128,0.128-0.118.118-1.882,1.882v-4Z" transform="translate(0 -502.579)"/>
    <path class="cls-5" d="M807.252,533.961l1.286,1.286,0.128,0.128-0.118.118-1.882,1.882v-4Z" transform="translate(0 -502.579)"/>
    <path class="cls-3" d="M792.875,527.2" transform="translate(0 -502.579)"/>
    <path class="cls-3" d="M807.312,527.164H802.85a11.288,11.288,0,0,0-2.212.168,3.411,3.411,0,0,0-2.313,1.784,10.74,10.74,0,0,0-.931,3.024,7,7,0,0,1-.986,1.9,4.524,4.524,0,0,1-2.56,1.353,13.047,13.047,0,0,1-3.225.078" transform="translate(0 -502.579)"/>
    <path class="cls-3" d="M791.844,535.376" transform="translate(0 -502.579)"/>
    <path class="cls-3" d="M806.667,535.376h-5.622a1.047,1.047,0,0,1-.45-0.1,3.574,3.574,0,0,1-2.313-1.786,10.764,10.764,0,0,1-.93-3.028,7.013,7.013,0,0,0-.986-1.906,4.522,4.522,0,0,0-2.56-1.355,13.029,13.029,0,0,0-3.225-.078" transform="translate(0 -502.579)"/>
  </g>
  <g>
    <path class="cls-5" d="M829.747,525.964l1.753,1.753,0.175,0.175-0.16.16-2.566,2.566v-5.453Z" transform="translate(0 -502.579)"/>
    <path class="cls-3" d="M833.578,527.892h0.341a4.7,4.7,0,0,1,4.686,4.686h0a4.7,4.7,0,0,1-4.686,4.686h-9.628a4.7,4.7,0,0,1-4.686-4.686h0a4.7,4.7,0,0,1,4.686-4.686h5.41" transform="translate(0 -502.579)"/>
  </g>
  <line class="cls-6" x1="850" y1="29.636" x2="935.5" y2="29.636"/>
  <circle class="cls-7" cx="925.417" cy="29.71" r="2.417"/>
  <rect class="cls-8" x="940.75" y="26.812" width="3" height="6.375"/>
  <path class="cls-3" d="M943.125,530.891l1.5-1.5L948,526.016s0,3.269,0,6.563c0,2.921,0,5.863,0,6.562l-3.376-3.376-1.5-1.5" transform="translate(0 -502.579)"/>
</svg>
